<svg xmlns="http://www.w3.org/2000/svg" width="80" height="106" viewBox="0 0 73 106">
  <defs>  
    <style type="text/css">
      @font-face {
        font-family: nasalization-rg;
        src: url(./nasalization-rg.otf);
      }
    </style>
  </defs>
  <g id="Group_26" data-name="Group 26" transform="translate(-148 -4610)">
    <g id="Group_23" data-name="Group 23" transform="translate(0 195)">
      <g id="Group_17" data-name="Group 17" transform="translate(0 390)">
        <g id="Group_12" data-name="Group 12" transform="translate(-11 194)">
          <path id="Subtraction_4" data-name="Subtraction 4" d="M64-478a52.667,52.667,0,0,1-20.63-4.165,52.825,52.825,0,0,1-16.847-11.358A52.825,52.825,0,0,1,15.165-510.37,52.667,52.667,0,0,1,11-531a52.667,52.667,0,0,1,4.165-20.63,52.825,52.825,0,0,1,11.358-16.847A52.825,52.825,0,0,1,43.37-579.835,52.666,52.666,0,0,1,64-584a53.088,53.088,0,0,1,14.657,2.053A50.9,50.9,0,0,0,30-531a50.9,50.9,0,0,0,48.657,50.947A53.088,53.088,0,0,1,64-478Z" transform="translate(148 4415)" fill="#fff"/>
        </g>
      </g>
    </g>
    <g id="Group_24" data-name="Group 24" transform="translate(3 184)">
      <g id="Group_25" data-name="Group 25" transform="translate(-8 10)">
        <text id="_75_" data-name="75%" transform="translate(178 4475)" fill="#fff" font-size="20" font-family="NasalizationRg, Nasalization" letter-spacing="0.1em"><tspan x="0" y="0">75%</tspan></text>
      </g>
    </g>
  </g>
</svg>
